<svg xmlns="http://www.w3.org/2000/svg" xmlns:xlink="http://www.w3.org/1999/xlink" width="713" zoomAndPan="magnify" viewBox="0 0 534.75 389.249997" height="519" preserveAspectRatio="xMidYMid meet" version="1.0"><defs><filter x="0%" y="0%" width="100%" height="100%" id="29a068e627"><feColorMatrix values="0 0 0 0 1 0 0 0 0 1 0 0 0 0 1 0 0 0 1 0" color-interpolation-filters="sRGB"/></filter><g/><clipPath id="65e35600fd"><path d="M 77.136719 45 L 425 45 L 425 341 L 77.136719 341 Z M 77.136719 45 " clip-rule="nonzero"/></clipPath><clipPath id="7207693263"><path d="M 158.042969 191.382812 L 166.847656 191.382812 L 166.847656 205.402344 L 158.042969 205.402344 Z M 158.042969 191.382812 " clip-rule="nonzero"/></clipPath><clipPath id="a5b2d9bf8a"><path d="M 159.796875 191.386719 C 166.195312 195.601562 166.421875 196.507812 166.570312 197.484375 C 166.722656 198.464844 166.796875 199.59375 166.421875 200.722656 C 165.894531 202.152344 164.3125 204.710938 162.957031 205.089844 C 161.753906 205.390625 158.96875 204.335938 158.742188 203.433594 C 158.515625 202.453125 161.902344 200.570312 162.28125 199.292969 C 162.507812 198.464844 162.429688 197.484375 161.980469 196.882812 C 161.375 196.207031 159.042969 196.65625 158.589844 195.828125 C 158.0625 194.925781 159.796875 191.386719 159.796875 191.386719 " clip-rule="nonzero"/></clipPath><mask id="03133ee09d"><g filter="url(#29a068e627)"><rect x="-53.475" width="641.7" fill="#000000" y="-38.925" height="467.099996" fill-opacity="0.5"/></g></mask><clipPath id="d52aa9d0c8"><path d="M 0.0429688 0.382812 L 8.847656 0.382812 L 8.847656 14.402344 L 0.0429688 14.402344 Z M 0.0429688 0.382812 " clip-rule="nonzero"/></clipPath><clipPath id="4ceff9355f"><path d="M 1.796875 0.386719 C 8.195312 4.601562 8.421875 5.507812 8.570312 6.484375 C 8.722656 7.464844 8.796875 8.59375 8.421875 9.722656 C 7.894531 11.152344 6.3125 13.710938 4.957031 14.089844 C 3.753906 14.390625 0.96875 13.335938 0.742188 12.433594 C 0.515625 11.453125 3.902344 9.570312 4.28125 8.292969 C 4.507812 7.464844 4.429688 6.484375 3.980469 5.882812 C 3.375 5.207031 1.042969 5.65625 0.589844 4.828125 C 0.0625 3.925781 1.796875 0.386719 1.796875 0.386719 " clip-rule="nonzero"/></clipPath><clipPath id="f1a1ecc527"><rect x="0" width="9" y="0" height="15"/></clipPath><clipPath id="62fc1d58b5"><path d="M 158 192.320312 L 167.5625 192.320312 L 167.5625 205.363281 L 158 205.363281 Z M 158 192.320312 " clip-rule="nonzero"/></clipPath><clipPath id="6dc94dfb37"><path d="M 159.796875 192.367188 C 165.742188 195.753906 166.421875 196.28125 166.871094 196.957031 C 167.25 197.636719 167.550781 198.464844 167.550781 199.21875 C 167.550781 200.046875 167.324219 200.796875 166.796875 201.625 C 165.96875 202.832031 163.785156 205.316406 162.429688 205.316406 C 161.226562 205.316406 158.890625 203.355469 158.96875 202.453125 C 159.042969 201.476562 163.558594 200.496094 163.558594 199.59375 C 163.558594 198.613281 158.742188 198.011719 158.214844 196.65625 C 157.761719 195.527344 159.796875 192.367188 159.796875 192.367188 " clip-rule="nonzero"/></clipPath><mask id="95dbe0a2d0"><g filter="url(#29a068e627)"><rect x="-53.475" width="641.7" fill="#000000" y="-38.925" height="467.099996" fill-opacity="0.5"/></g></mask><clipPath id="c264c5260f"><path d="M 0 0.347656 L 9.5625 0.347656 L 9.5625 13.363281 L 0 13.363281 Z M 0 0.347656 " clip-rule="nonzero"/></clipPath><clipPath id="24bb361d62"><path d="M 1.796875 0.367188 C 7.742188 3.753906 8.421875 4.28125 8.871094 4.957031 C 9.25 5.636719 9.550781 6.464844 9.550781 7.21875 C 9.550781 8.046875 9.324219 8.796875 8.796875 9.625 C 7.96875 10.832031 5.785156 13.316406 4.429688 13.316406 C 3.226562 13.316406 0.890625 11.355469 0.96875 10.453125 C 1.042969 9.476562 5.558594 8.496094 5.558594 7.59375 C 5.558594 6.613281 0.742188 6.011719 0.214844 4.65625 C -0.238281 3.527344 1.796875 0.367188 1.796875 0.367188 " clip-rule="nonzero"/></clipPath><clipPath id="ded503db4c"><rect x="0" width="10" y="0" height="14"/></clipPath><clipPath id="5c421c0438"><path d="M 158.585938 192.789062 L 166.675781 192.789062 L 166.675781 207 L 158.585938 207 Z M 158.585938 192.789062 " clip-rule="nonzero"/></clipPath><clipPath id="9fd691b7c8"><path d="M 160.097656 192.816406 C 164.238281 194.925781 164.613281 195.378906 165.066406 196.128906 C 165.742188 197.257812 166.648438 199.367188 166.648438 200.648438 C 166.648438 201.550781 166.421875 202.226562 165.894531 203.054688 C 165.066406 204.335938 162.582031 207.121094 161.527344 206.894531 C 160.625 206.667969 159.570312 203.582031 159.796875 202.679688 C 159.945312 202.078125 161 202.078125 161.375 201.550781 C 161.828125 201.023438 162.507812 200.046875 162.28125 199.441406 C 162.054688 198.613281 159.417969 198.3125 159.042969 197.257812 C 158.589844 196.128906 160.097656 192.816406 160.097656 192.816406 " clip-rule="nonzero"/></clipPath><mask id="d3b362a05e"><g filter="url(#29a068e627)"><rect x="-53.475" width="641.7" fill="#000000" y="-38.925" height="467.099996" fill-opacity="0.5"/></g></mask><clipPath id="f569416921"><path d="M 0.585938 0.789062 L 8.675781 0.789062 L 8.675781 15 L 0.585938 15 Z M 0.585938 0.789062 " clip-rule="nonzero"/></clipPath><clipPath id="137a07ab00"><path d="M 2.097656 0.816406 C 6.238281 2.925781 6.613281 3.378906 7.066406 4.128906 C 7.742188 5.257812 8.648438 7.367188 8.648438 8.648438 C 8.648438 9.550781 8.421875 10.226562 7.894531 11.054688 C 7.066406 12.335938 4.582031 15.121094 3.527344 14.894531 C 2.625 14.667969 1.570312 11.582031 1.796875 10.679688 C 1.945312 10.078125 3 10.078125 3.375 9.550781 C 3.828125 9.023438 4.507812 8.046875 4.28125 7.441406 C 4.054688 6.613281 1.417969 6.3125 1.042969 5.257812 C 0.589844 4.128906 2.097656 0.816406 2.097656 0.816406 " clip-rule="nonzero"/></clipPath><clipPath id="1dab28289e"><rect x="0" width="9" y="0" height="15"/></clipPath><clipPath id="aa0cab9911"><path d="M 158.402344 192.402344 L 166.683594 192.402344 L 166.683594 206.640625 L 158.402344 206.640625 Z M 158.402344 192.402344 " clip-rule="nonzero"/></clipPath><clipPath id="413336b97d"><path d="M 159.945312 192.441406 C 164.914062 195.453125 166.648438 199.519531 166.648438 201.398438 C 166.648438 202.605469 165.894531 203.582031 165.214844 204.410156 C 164.539062 205.238281 163.257812 206.59375 162.507812 206.445312 C 161.601562 206.21875 160.097656 203.355469 160.324219 202.453125 C 160.472656 201.851562 162.203125 201.851562 162.355469 201.25 C 162.582031 200.347656 160.851562 197.785156 160.097656 197.183594 C 159.644531 196.882812 159.042969 197.257812 158.816406 196.882812 C 158.441406 196.28125 159.945312 192.441406 159.945312 192.441406 " clip-rule="nonzero"/></clipPath><mask id="89422940f7"><g filter="url(#29a068e627)"><rect x="-53.475" width="641.7" fill="#000000" y="-38.925" height="467.099996" fill-opacity="0.5"/></g></mask><clipPath id="71b99c6605"><path d="M 0.402344 0.402344 L 8.683594 0.402344 L 8.683594 14.640625 L 0.402344 14.640625 Z M 0.402344 0.402344 " clip-rule="nonzero"/></clipPath><clipPath id="68d7f2e5c1"><path d="M 1.945312 0.441406 C 6.914062 3.453125 8.648438 7.519531 8.648438 9.398438 C 8.648438 10.605469 7.894531 11.582031 7.214844 12.410156 C 6.539062 13.238281 5.257812 14.59375 4.507812 14.445312 C 3.601562 14.21875 2.097656 11.355469 2.324219 10.453125 C 2.472656 9.851562 4.203125 9.851562 4.355469 9.25 C 4.582031 8.347656 2.851562 5.785156 2.097656 5.183594 C 1.644531 4.882812 1.042969 5.257812 0.816406 4.882812 C 0.441406 4.28125 1.945312 0.441406 1.945312 0.441406 " clip-rule="nonzero"/></clipPath><clipPath id="dce9be78e5"><rect x="0" width="9" y="0" height="15"/></clipPath><clipPath id="9c7bc65914"><path d="M 159 192.632812 L 166.589844 192.632812 L 166.589844 205.417969 L 159 205.417969 Z M 159 192.632812 " clip-rule="nonzero"/></clipPath><clipPath id="02fa378a7b"><path d="M 160.472656 192.667969 C 164.765625 195.300781 165.96875 197.410156 166.269531 198.914062 C 166.496094 200.046875 166.570312 201.25 166.042969 202.226562 C 165.441406 203.355469 163.558594 205.390625 162.582031 205.238281 C 161.601562 205.089844 159.871094 202.003906 160.171875 201.398438 C 160.398438 200.949219 162.507812 201.625 162.65625 201.25 C 162.882812 200.648438 159.34375 198.539062 159.042969 197.035156 C 158.742188 195.679688 160.472656 192.667969 160.472656 192.667969 " clip-rule="nonzero"/></clipPath><mask id="d7c0f42145"><g filter="url(#29a068e627)"><rect x="-53.475" width="641.7" fill="#000000" y="-38.925" height="467.099996" fill-opacity="0.5"/></g></mask><clipPath id="6492fb597c"><path d="M 0 0.632812 L 7.589844 0.632812 L 7.589844 13.417969 L 0 13.417969 Z M 0 0.632812 " clip-rule="nonzero"/></clipPath><clipPath id="4daa580859"><path d="M 1.472656 0.667969 C 5.765625 3.300781 6.96875 5.410156 7.269531 6.914062 C 7.496094 8.046875 7.570312 9.25 7.042969 10.226562 C 6.441406 11.355469 4.558594 13.390625 3.582031 13.238281 C 2.601562 13.089844 0.871094 10.003906 1.171875 9.398438 C 1.398438 8.949219 3.507812 9.625 3.65625 9.25 C 3.882812 8.648438 0.34375 6.539062 0.0429688 5.035156 C -0.257812 3.679688 1.472656 0.667969 1.472656 0.667969 " clip-rule="nonzero"/></clipPath><clipPath id="b2174802dc"><rect x="0" width="8" y="0" height="14"/></clipPath><clipPath id="0ada376ccb"><path d="M 158 192.417969 L 166.675781 192.417969 L 166.675781 205.640625 L 158 205.640625 Z M 158 192.417969 " clip-rule="nonzero"/></clipPath><clipPath id="a2d345ad6f"><path d="M 159.34375 192.441406 C 164.914062 194.550781 166.042969 196.128906 166.34375 197.5625 C 166.648438 198.992188 166.421875 200.949219 165.742188 202.304688 C 165.140625 203.582031 163.636719 205.464844 162.582031 205.539062 C 161.453125 205.617188 159.195312 203.433594 159.195312 202.527344 C 159.195312 201.777344 161.074219 201.324219 161.601562 200.496094 C 162.054688 199.820312 162.582031 198.691406 162.28125 198.085938 C 161.902344 197.335938 158.890625 197.785156 158.367188 196.882812 C 157.839844 195.980469 159.34375 192.441406 159.34375 192.441406 " clip-rule="nonzero"/></clipPath><mask id="95dcc36af1"><g filter="url(#29a068e627)"><rect x="-53.475" width="641.7" fill="#000000" y="-38.925" height="467.099996" fill-opacity="0.5"/></g></mask><clipPath id="7ac7a7e2d6"><path d="M 0 0.417969 L 8.675781 0.417969 L 8.675781 13.640625 L 0 13.640625 Z M 0 0.417969 " clip-rule="nonzero"/></clipPath><clipPath id="1f5e81ab20"><path d="M 1.34375 0.441406 C 6.914062 2.550781 8.042969 4.128906 8.34375 5.5625 C 8.648438 6.992188 8.421875 8.949219 7.742188 10.304688 C 7.140625 11.582031 5.636719 13.464844 4.582031 13.539062 C 3.453125 13.617188 1.195312 11.433594 1.195312 10.527344 C 1.195312 9.777344 3.074219 9.324219 3.601562 8.496094 C 4.054688 7.820312 4.582031 6.691406 4.28125 6.085938 C 3.902344 5.335938 0.890625 5.785156 0.367188 4.882812 C -0.160156 3.980469 1.34375 0.441406 1.34375 0.441406 " clip-rule="nonzero"/></clipPath><clipPath id="41c7c734c7"><rect x="0" width="9" y="0" height="14"/></clipPath><clipPath id="da259723c5"><path d="M 181.4375 192.929688 L 191 192.929688 L 191 204.882812 L 181.4375 204.882812 Z M 181.4375 192.929688 " clip-rule="nonzero"/></clipPath><clipPath id="981bb0a27c"><path d="M 182.53125 192.96875 C 187.875 194.324219 189.757812 196.054688 190.4375 197.257812 C 190.886719 198.011719 191.039062 198.691406 190.8125 199.519531 C 190.4375 200.949219 188.402344 204.335938 186.972656 204.636719 C 185.769531 204.863281 183.058594 203.132812 183.058594 202.378906 C 183.058594 201.703125 185.617188 201.175781 185.996094 200.347656 C 186.296875 199.667969 186.296875 198.539062 185.84375 198.011719 C 185.242188 197.410156 182.757812 198.238281 182.15625 197.484375 C 181.476562 196.65625 182.53125 192.96875 182.53125 192.96875 " clip-rule="nonzero"/></clipPath><mask id="29a2c11073"><g filter="url(#29a068e627)"><rect x="-53.475" width="641.7" fill="#000000" y="-38.925" height="467.099996" fill-opacity="0.5"/></g></mask><clipPath id="0e7ea594b6"><path d="M 0.4375 0.929688 L 10 0.929688 L 10 12.882812 L 0.4375 12.882812 Z M 0.4375 0.929688 " clip-rule="nonzero"/></clipPath><clipPath id="dbe2f0d271"><path d="M 1.53125 0.96875 C 6.875 2.324219 8.757812 4.054688 9.4375 5.257812 C 9.886719 6.011719 10.039062 6.691406 9.8125 7.519531 C 9.4375 8.949219 7.402344 12.335938 5.972656 12.636719 C 4.769531 12.863281 2.058594 11.132812 2.058594 10.378906 C 2.058594 9.703125 4.617188 9.175781 4.996094 8.347656 C 5.296875 7.667969 5.296875 6.539062 4.84375 6.011719 C 4.242188 5.410156 1.757812 6.238281 1.15625 5.484375 C 0.476562 4.65625 1.53125 0.96875 1.53125 0.96875 " clip-rule="nonzero"/></clipPath><clipPath id="01c7762852"><rect x="0" width="10" y="0" height="13"/></clipPath><clipPath id="9bb53bdcd1"><path d="M 182 193.609375 L 191.773438 193.609375 L 191.773438 206 L 182 206 Z M 182 193.609375 " clip-rule="nonzero"/></clipPath><clipPath id="de8c918c6e"><path d="M 182.683594 193.644531 C 189.757812 195.300781 190.511719 195.601562 190.960938 196.207031 C 191.488281 196.808594 191.714844 197.863281 191.714844 198.691406 C 191.714844 199.441406 191.714844 200.121094 191.1875 200.949219 C 190.210938 202.453125 186.144531 206.144531 184.714844 205.765625 C 183.660156 205.464844 182.457031 202.753906 182.832031 201.703125 C 183.285156 200.496094 188.175781 200.046875 188.101562 199.441406 C 188.027344 198.839844 183.132812 199.367188 182.304688 198.238281 C 181.550781 197.257812 182.683594 193.644531 182.683594 193.644531 " clip-rule="nonzero"/></clipPath><mask id="3915d6f271"><g filter="url(#29a068e627)"><rect x="-53.475" width="641.7" fill="#000000" y="-38.925" height="467.099996" fill-opacity="0.5"/></g></mask><clipPath id="d4b11d223e"><path d="M 0 0.609375 L 9.773438 0.609375 L 9.773438 13 L 0 13 Z M 0 0.609375 " clip-rule="nonzero"/></clipPath><clipPath id="ab726802ad"><path d="M 0.683594 0.644531 C 7.757812 2.300781 8.511719 2.601562 8.960938 3.207031 C 9.488281 3.808594 9.714844 4.863281 9.714844 5.691406 C 9.714844 6.441406 9.714844 7.121094 9.1875 7.949219 C 8.210938 9.453125 4.144531 13.144531 2.714844 12.765625 C 1.660156 12.464844 0.457031 9.753906 0.832031 8.703125 C 1.285156 7.496094 6.175781 7.046875 6.101562 6.441406 C 6.027344 5.839844 1.132812 6.367188 0.304688 5.238281 C -0.449219 4.257812 0.683594 0.644531 0.683594 0.644531 " clip-rule="nonzero"/></clipPath><clipPath id="f87361e343"><rect x="0" width="10" y="0" height="13"/></clipPath><clipPath id="9997201f2c"><path d="M 181.136719 193 L 191.402344 193 L 191.402344 205.488281 L 181.136719 205.488281 Z M 181.136719 193 " clip-rule="nonzero"/></clipPath><clipPath id="3773c64869"><path d="M 183.058594 193.042969 C 190.359375 197.109375 191.339844 199.066406 191.339844 200.347656 C 191.339844 201.324219 190.660156 202.226562 189.910156 202.980469 C 188.855469 203.960938 186.371094 205.464844 185.167969 205.089844 C 184.035156 204.710938 182.457031 201.925781 182.832031 201.25 C 183.207031 200.570312 186.824219 201.398438 187.046875 200.875 C 187.273438 200.421875 186.070312 199.21875 185.316406 198.691406 C 184.414062 198.011719 182.078125 198.238281 181.628906 197.410156 C 181.175781 196.507812 183.058594 193.042969 183.058594 193.042969 " clip-rule="nonzero"/></clipPath><mask id="fe7de53c9d"><g filter="url(#29a068e627)"><rect x="-53.475" width="641.7" fill="#000000" y="-38.925" height="467.099996" fill-opacity="0.5"/></g></mask><clipPath id="bbc858bd3b"><path d="M 0.136719 0 L 10.402344 0 L 10.402344 12.488281 L 0.136719 12.488281 Z M 0.136719 0 " clip-rule="nonzero"/></clipPath><clipPath id="447ae9b4a2"><path d="M 2.058594 0.0429688 C 9.359375 4.109375 10.339844 6.066406 10.339844 7.347656 C 10.339844 8.324219 9.660156 9.226562 8.910156 9.980469 C 7.855469 10.960938 5.371094 12.464844 4.167969 12.089844 C 3.035156 11.710938 1.457031 8.925781 1.832031 8.25 C 2.207031 7.570312 5.824219 8.398438 6.046875 7.875 C 6.273438 7.421875 5.070312 6.21875 4.316406 5.691406 C 3.414062 5.011719 1.078125 5.238281 0.628906 4.410156 C 0.175781 3.507812 2.058594 0.0429688 2.058594 0.0429688 " clip-rule="nonzero"/></clipPath><clipPath id="4a5a557077"><rect x="0" width="11" y="0" height="13"/></clipPath><clipPath id="3e0cf158a5"><path d="M 181.5 193.257812 L 191.121094 193.257812 L 191.121094 205.621094 L 181.5 205.621094 Z M 181.5 193.257812 " clip-rule="nonzero"/></clipPath><clipPath id="23882480a3"><path d="M 183.734375 193.269531 C 190.738281 196.882812 190.886719 197.5625 190.960938 198.3125 C 191.113281 199.140625 190.960938 200.195312 190.660156 201.097656 C 190.285156 202.078125 189.609375 203.054688 188.78125 203.808594 C 187.875 204.5625 186.597656 205.617188 185.46875 205.539062 C 184.261719 205.464844 181.703125 203.734375 181.777344 202.980469 C 181.855469 202.304688 184.261719 202.078125 185.015625 201.324219 C 185.691406 200.648438 186.519531 199.519531 186.296875 198.914062 C 185.996094 198.164062 182.457031 198.390625 182.003906 197.484375 C 181.550781 196.507812 183.734375 193.269531 183.734375 193.269531 " clip-rule="nonzero"/></clipPath><mask id="6d4fc5aae6"><g filter="url(#29a068e627)"><rect x="-53.475" width="641.7" fill="#000000" y="-38.925" height="467.099996" fill-opacity="0.5"/></g></mask><clipPath id="4601a23efc"><path d="M 0.5 0.257812 L 10.121094 0.257812 L 10.121094 12.621094 L 0.5 12.621094 Z M 0.5 0.257812 " clip-rule="nonzero"/></clipPath><clipPath id="54df3217de"><path d="M 2.734375 0.269531 C 9.738281 3.882812 9.886719 4.5625 9.960938 5.3125 C 10.113281 6.140625 9.960938 7.195312 9.660156 8.097656 C 9.285156 9.078125 8.609375 10.054688 7.78125 10.808594 C 6.875 11.5625 5.597656 12.617188 4.46875 12.539062 C 3.261719 12.464844 0.703125 10.734375 0.777344 9.980469 C 0.855469 9.304688 3.261719 9.078125 4.015625 8.324219 C 4.691406 7.648438 5.519531 6.519531 5.296875 5.914062 C 4.996094 5.164062 1.457031 5.390625 1.003906 4.484375 C 0.550781 3.507812 2.734375 0.269531 2.734375 0.269531 " clip-rule="nonzero"/></clipPath><clipPath id="eae786db92"><rect x="0" width="11" y="0" height="13"/></clipPath><clipPath id="a9edfc6804"><path d="M 173 183 L 188.789062 183 L 188.789062 192 L 173 192 Z M 173 183 " clip-rule="nonzero"/></clipPath><clipPath id="3bc9ef9bbc"><path d="M 173.496094 186.871094 C 184.714844 184.6875 186.746094 182.65625 187.574219 183.183594 C 188.402344 183.632812 188.78125 186.492188 188.027344 187.699219 C 186.824219 189.503906 180.800781 190.558594 178.164062 191.085938 C 176.433594 191.460938 174.550781 192.140625 173.796875 191.460938 C 172.96875 190.785156 173.496094 186.871094 173.496094 186.871094 " clip-rule="nonzero"/></clipPath><mask id="65afcc8cea"><g filter="url(#29a068e627)"><rect x="-53.475" width="641.7" fill="#000000" y="-38.925" height="467.099996" fill-opacity="0.5"/></g></mask><clipPath id="85f57f9a6c"><path d="M 0 0 L 15.789062 0 L 15.789062 9 L 0 9 Z M 0 0 " clip-rule="nonzero"/></clipPath><clipPath id="9819ef84e6"><path d="M 0.496094 3.871094 C 11.714844 1.6875 13.746094 -0.34375 14.574219 0.183594 C 15.402344 0.632812 15.78125 3.492188 15.027344 4.699219 C 13.824219 6.503906 7.800781 7.558594 5.164062 8.085938 C 3.433594 8.460938 1.550781 9.140625 0.796875 8.460938 C -0.03125 7.785156 0.496094 3.871094 0.496094 3.871094 " clip-rule="nonzero"/></clipPath><clipPath id="9c4f0d84b1"><rect x="0" width="16" y="0" height="9"/></clipPath><clipPath id="1a7dffa5b6"><path d="M 174 185 L 188.828125 185 L 188.828125 192 L 174 192 Z M 174 185 " clip-rule="nonzero"/></clipPath><clipPath id="e44dbe5f5c"><path d="M 174.703125 186.191406 C 187.953125 184.160156 188.78125 186.644531 188.175781 187.773438 C 187.046875 189.730469 176.359375 191.988281 174.703125 190.710938 C 173.796875 189.957031 174.703125 186.191406 174.703125 186.191406 " clip-rule="nonzero"/></clipPath><mask id="fb0a6d851f"><g filter="url(#29a068e627)"><rect x="-53.475" width="641.7" fill="#000000" y="-38.925" height="467.099996" fill-opacity="0.5"/></g></mask><clipPath id="a0ddfb39a3"><path d="M 0 0 L 14.828125 0 L 14.828125 7 L 0 7 Z M 0 0 " clip-rule="nonzero"/></clipPath><clipPath id="86865966a4"><path d="M 0.703125 1.191406 C 13.953125 -0.839844 14.78125 1.644531 14.175781 2.773438 C 13.046875 4.730469 2.359375 6.988281 0.703125 5.710938 C -0.203125 4.957031 0.703125 1.191406 0.703125 1.191406 " clip-rule="nonzero"/></clipPath><clipPath id="2380ac44dc"><rect x="0" width="15" y="0" height="7"/></clipPath><clipPath id="53d1c91197"><path d="M 172.375 184 L 190.152344 184 L 190.152344 193 L 172.375 193 Z M 172.375 184 " clip-rule="nonzero"/></clipPath><clipPath id="cb26d3ecfd"><path d="M 172.746094 187.773438 C 188.027344 183.558594 190.132812 184.914062 190.058594 185.816406 C 189.984375 187.171875 183.585938 189.355469 180.574219 190.484375 C 178.089844 191.386719 174.625 193.117188 173.421875 192.289062 C 172.445312 191.6875 172.746094 187.773438 172.746094 187.773438 " clip-rule="nonzero"/></clipPath><mask id="de5693c01f"><g filter="url(#29a068e627)"><rect x="-53.475" width="641.7" fill="#000000" y="-38.925" height="467.099996" fill-opacity="0.5"/></g></mask><clipPath id="8d406af804"><path d="M 0.378906 0 L 18.152344 0 L 18.152344 9 L 0.378906 9 Z M 0.378906 0 " clip-rule="nonzero"/></clipPath><clipPath id="fd59c5799b"><path d="M 0.746094 3.773438 C 16.027344 -0.441406 18.132812 0.914062 18.058594 1.816406 C 17.984375 3.171875 11.585938 5.355469 8.574219 6.484375 C 6.089844 7.386719 2.625 9.117188 1.421875 8.289062 C 0.445312 7.6875 0.746094 3.773438 0.746094 3.773438 " clip-rule="nonzero"/></clipPath><clipPath id="676273f33e"><rect x="0" width="19" y="0" height="9"/></clipPath><clipPath id="a6d53c8326"><path d="M 173.15625 182 L 189.324219 182 L 189.324219 192 L 173.15625 192 Z M 173.15625 182 " clip-rule="nonzero"/></clipPath><clipPath id="ea6fa9fa66"><path d="M 173.347656 186.945312 C 183.886719 184.160156 184.339844 183.332031 185.242188 182.957031 C 186.21875 182.503906 187.875 181.828125 188.480469 182.277344 C 189.15625 182.804688 189.308594 185.667969 188.554688 186.796875 C 187.652344 188.148438 184.714844 188.601562 182.53125 189.355469 C 180.046875 190.183594 175.679688 192.289062 174.25 191.386719 C 173.195312 190.710938 173.347656 186.945312 173.347656 186.945312 " clip-rule="nonzero"/></clipPath><mask id="6204e7b839"><g filter="url(#29a068e627)"><rect x="-53.475" width="641.7" fill="#000000" y="-38.925" height="467.099996" fill-opacity="0.5"/></g></mask><clipPath id="81d053087e"><path d="M 0.15625 0 L 16.324219 0 L 16.324219 10 L 0.15625 10 Z M 0.15625 0 " clip-rule="nonzero"/></clipPath><clipPath id="90b5fcf986"><path d="M 0.347656 4.945312 C 10.886719 2.160156 11.339844 1.332031 12.242188 0.957031 C 13.21875 0.503906 14.875 -0.171875 15.480469 0.277344 C 16.15625 0.804688 16.308594 3.667969 15.554688 4.796875 C 14.652344 6.148438 11.714844 6.601562 9.53125 7.355469 C 7.046875 8.183594 2.679688 10.289062 1.25 9.386719 C 0.195312 8.710938 0.347656 4.945312 0.347656 4.945312 " clip-rule="nonzero"/></clipPath><clipPath id="64f6ce9af4"><rect x="0" width="17" y="0" height="10"/></clipPath><clipPath id="b4a8231de2"><path d="M 304 180.445312 L 313 180.445312 L 313 188.683594 L 304 188.683594 Z M 304 180.445312 " clip-rule="nonzero"/></clipPath><clipPath id="b664cb2887"><path d="M 306.445312 180.472656 C 314.953125 187.625 312.46875 188.675781 310.964844 188.601562 C 308.929688 188.453125 304.5625 186.042969 304.1875 184.460938 C 303.886719 183.257812 306.445312 180.472656 306.445312 180.472656 " clip-rule="nonzero"/></clipPath><mask id="d8f68bd346"><g filter="url(#29a068e627)"><rect x="-53.475" width="641.7" fill="#000000" y="-38.925" height="467.099996" fill-opacity="0.5"/></g></mask><clipPath id="3ac8e0fb95"><path d="M 0 0.445312 L 9 0.445312 L 9 8.683594 L 0 8.683594 Z M 0 0.445312 " clip-rule="nonzero"/></clipPath><clipPath id="c1541ef393"><path d="M 2.445312 0.472656 C 10.953125 7.625 8.46875 8.675781 6.964844 8.601562 C 4.929688 8.453125 0.5625 6.042969 0.1875 4.460938 C -0.113281 3.257812 2.445312 0.472656 2.445312 0.472656 " clip-rule="nonzero"/></clipPath><clipPath id="0b55e7a3b6"><rect x="0" width="9" y="0" height="9"/></clipPath><clipPath id="77a4c17e03"><path d="M 303.300781 180.839844 L 312 180.839844 L 312 189.0625 L 303.300781 189.0625 Z M 303.300781 180.839844 " clip-rule="nonzero"/></clipPath><clipPath id="bb12dad359"><path d="M 305.84375 180.847656 C 314.125 187.847656 311.714844 189.054688 310.285156 189.054688 C 308.328125 188.976562 304.113281 186.492188 303.660156 184.914062 C 303.359375 183.707031 305.84375 180.847656 305.84375 180.847656 " clip-rule="nonzero"/></clipPath><mask id="6d5d4b555d"><g filter="url(#29a068e627)"><rect x="-53.475" width="641.7" fill="#000000" y="-38.925" height="467.099996" fill-opacity="0.5"/></g></mask><clipPath id="1ccfc5b698"><path d="M 0.300781 0.839844 L 9 0.839844 L 9 9.0625 L 0.300781 9.0625 Z M 0.300781 0.839844 " clip-rule="nonzero"/></clipPath><clipPath id="8bd971d2e0"><path d="M 2.84375 0.847656 C 11.125 7.847656 8.714844 9.054688 7.285156 9.054688 C 5.328125 8.976562 1.113281 6.492188 0.660156 4.914062 C 0.359375 3.707031 2.84375 0.847656 2.84375 0.847656 " clip-rule="nonzero"/></clipPath><clipPath id="33928584df"><rect x="0" width="9" y="0" height="10"/></clipPath><clipPath id="fe2b0b9cf9"><path d="M 303.378906 180.1875 L 314.828125 180.1875 L 314.828125 189.773438 L 303.378906 189.773438 Z M 303.378906 180.1875 " clip-rule="nonzero"/></clipPath><clipPath id="45530d9d81"><path d="M 305.695312 180.246094 C 312.394531 184.386719 314.800781 185.816406 314.726562 186.871094 C 314.652344 187.847656 312.621094 189.582031 311.265625 189.65625 C 309.230469 189.730469 304.339844 186.269531 303.8125 184.386719 C 303.433594 183.03125 305.695312 180.246094 305.695312 180.246094 " clip-rule="nonzero"/></clipPath><mask id="2809e812af"><g filter="url(#29a068e627)"><rect x="-53.475" width="641.7" fill="#000000" y="-38.925" height="467.099996" fill-opacity="0.5"/></g></mask><clipPath id="89b9dfde63"><path d="M 0.40625 0.1875 L 11.828125 0.1875 L 11.828125 9.773438 L 0.40625 9.773438 Z M 0.40625 0.1875 " clip-rule="nonzero"/></clipPath><clipPath id="980bab17e9"><path d="M 2.695312 0.246094 C 9.394531 4.386719 11.800781 5.816406 11.726562 6.871094 C 11.652344 7.847656 9.621094 9.582031 8.265625 9.65625 C 6.230469 9.730469 1.339844 6.269531 0.8125 4.386719 C 0.433594 3.03125 2.695312 0.246094 2.695312 0.246094 " clip-rule="nonzero"/></clipPath><clipPath id="59959c9520"><rect x="0" width="12" y="0" height="10"/></clipPath><clipPath id="e3a385cbf5"><path d="M 303 180.613281 L 313 180.613281 L 313 188.835938 L 303 188.835938 Z M 303 180.613281 " clip-rule="nonzero"/></clipPath><clipPath id="13ead5fd04"><path d="M 305.84375 180.621094 C 315.179688 188 312.542969 188.828125 311.113281 188.828125 C 309.683594 188.828125 308.101562 187.699219 306.746094 186.945312 C 305.390625 186.191406 303.210938 185.289062 303.058594 184.234375 C 302.90625 183.183594 305.84375 180.621094 305.84375 180.621094 " clip-rule="nonzero"/></clipPath><mask id="d0f6884704"><g filter="url(#29a068e627)"><rect x="-53.475" width="641.7" fill="#000000" y="-38.925" height="467.099996" fill-opacity="0.5"/></g></mask><clipPath id="9367970cac"><path d="M 0 0.613281 L 10 0.613281 L 10 8.835938 L 0 8.835938 Z M 0 0.613281 " clip-rule="nonzero"/></clipPath><clipPath id="7b29cf9cd1"><path d="M 2.84375 0.621094 C 12.179688 8 9.542969 8.828125 8.113281 8.828125 C 6.683594 8.828125 5.101562 7.699219 3.746094 6.945312 C 2.390625 6.191406 0.210938 5.289062 0.0585938 4.234375 C -0.09375 3.183594 2.84375 0.621094 2.84375 0.621094 " clip-rule="nonzero"/></clipPath><clipPath id="e85ed6aaef"><rect x="0" width="10" y="0" height="9"/></clipPath><clipPath id="4cc6d30d65"><path d="M 303.34375 181.128906 L 316.710938 181.128906 L 316.710938 189.882812 L 303.34375 189.882812 Z M 303.34375 181.128906 " clip-rule="nonzero"/></clipPath><clipPath id="01b2b4efa0"><path d="M 305.316406 181.148438 C 315.78125 186.191406 316.683594 187.398438 316.457031 188.074219 C 316.15625 188.902344 313.222656 189.882812 312.242188 189.582031 C 311.566406 189.355469 311.640625 188.300781 310.886719 187.773438 C 309.53125 186.796875 304.5625 186.871094 303.886719 185.515625 C 303.359375 184.460938 305.316406 181.148438 305.316406 181.148438 " clip-rule="nonzero"/></clipPath><mask id="bdf235fa7e"><g filter="url(#29a068e627)"><rect x="-53.475" width="641.7" fill="#000000" y="-38.925" height="467.099996" fill-opacity="0.5"/></g></mask><clipPath id="5f234b116c"><path d="M 0.34375 0.128906 L 13.710938 0.128906 L 13.710938 8.882812 L 0.34375 8.882812 Z M 0.34375 0.128906 " clip-rule="nonzero"/></clipPath><clipPath id="44386cbc26"><path d="M 2.316406 0.148438 C 12.78125 5.191406 13.683594 6.398438 13.457031 7.074219 C 13.15625 7.902344 10.222656 8.882812 9.242188 8.582031 C 8.566406 8.355469 8.640625 7.300781 7.886719 6.773438 C 6.53125 5.796875 1.5625 5.871094 0.886719 4.515625 C 0.359375 3.460938 2.316406 0.148438 2.316406 0.148438 " clip-rule="nonzero"/></clipPath><clipPath id="5e446403d4"><rect x="0" width="14" y="0" height="9"/></clipPath><clipPath id="97b8eb4a9d"><path d="M 304.507812 181.324219 L 314 181.324219 L 314 189.179688 L 304.507812 189.179688 Z M 304.507812 181.324219 " clip-rule="nonzero"/></clipPath><clipPath id="a59ce23c53"><path d="M 307.273438 181.375 C 315.40625 187.773438 312.996094 189.128906 311.488281 189.128906 C 309.609375 189.128906 305.242188 186.796875 304.867188 185.289062 C 304.5625 184.085938 307.273438 181.375 307.273438 181.375 " clip-rule="nonzero"/></clipPath><mask id="727495571f"><g filter="url(#29a068e627)"><rect x="-53.475" width="641.7" fill="#000000" y="-38.925" height="467.099996" fill-opacity="0.5"/></g></mask><clipPath id="a66df547fb"><path d="M 0.507812 0.332031 L 10 0.332031 L 10 8.179688 L 0.507812 8.179688 Z M 0.507812 0.332031 " clip-rule="nonzero"/></clipPath><clipPath id="b191be7f5f"><path d="M 3.273438 0.375 C 11.40625 6.773438 8.996094 8.128906 7.488281 8.128906 C 5.609375 8.128906 1.242188 5.796875 0.867188 4.289062 C 0.5625 3.085938 3.273438 0.375 3.273438 0.375 " clip-rule="nonzero"/></clipPath><clipPath id="2460f40ca0"><rect x="0" width="10" y="0" height="9"/></clipPath><clipPath id="eb8acc1431"><path d="M 311.105469 184.757812 L 314 184.757812 L 314 189.367188 L 311.105469 189.367188 Z M 311.105469 184.757812 " clip-rule="nonzero"/></clipPath><clipPath id="bd5683b614"><path d="M 313.523438 184.761719 C 314.578125 186.042969 312.996094 189.054688 312.316406 189.28125 C 312.015625 189.355469 311.414062 189.054688 311.339844 188.753906 C 311.113281 188.074219 313.523438 184.761719 313.523438 184.761719 " clip-rule="nonzero"/></clipPath><mask id="46b0036209"><g filter="url(#29a068e627)"><rect x="-53.475" width="641.7" fill="#000000" y="-38.925" height="467.099996" fill-opacity="0.5"/></g></mask><clipPath id="35287e7994"><path d="M 0.105469 0.757812 L 3 0.757812 L 3 5.367188 L 0.105469 5.367188 Z M 0.105469 0.757812 " clip-rule="nonzero"/></clipPath><clipPath id="cb601a8d08"><path d="M 2.523438 0.761719 C 3.578125 2.042969 1.996094 5.054688 1.316406 5.28125 C 1.015625 5.355469 0.414062 5.054688 0.339844 4.753906 C 0.113281 4.074219 2.523438 0.761719 2.523438 0.761719 " clip-rule="nonzero"/></clipPath><clipPath id="0c64386da0"><rect x="0" width="3" y="0" height="6"/></clipPath><clipPath id="fb7ccb79f1"><path d="M 309.746094 184.582031 L 315 184.582031 L 315 190.636719 L 309.746094 190.636719 Z M 309.746094 184.582031 " clip-rule="nonzero"/></clipPath><clipPath id="5c35a7cd57"><path d="M 312.46875 184.613281 C 315.179688 187.171875 314.125 190.03125 313.222656 190.332031 C 312.394531 190.632812 310.210938 189.355469 309.984375 188.453125 C 309.757812 187.472656 312.46875 184.613281 312.46875 184.613281 " clip-rule="nonzero"/></clipPath><mask id="2c6614f941"><g filter="url(#29a068e627)"><rect x="-53.475" width="641.7" fill="#000000" y="-38.925" height="467.099996" fill-opacity="0.5"/></g></mask><clipPath id="e635b72637"><path d="M 0.746094 0.582031 L 6 0.582031 L 6 6.636719 L 0.746094 6.636719 Z M 0.746094 0.582031 " clip-rule="nonzero"/></clipPath><clipPath id="b46fd0cae4"><path d="M 3.46875 0.613281 C 6.179688 3.171875 5.125 6.03125 4.222656 6.332031 C 3.394531 6.632812 1.210938 5.355469 0.984375 4.453125 C 0.757812 3.472656 3.46875 0.613281 3.46875 0.613281 " clip-rule="nonzero"/></clipPath><clipPath id="914eca0f3b"><rect x="0" width="6" y="0" height="7"/></clipPath><clipPath id="58aa2e9d70"><path d="M 309.578125 183.609375 L 313 183.609375 L 313 188.527344 L 309.578125 188.527344 Z M 309.578125 183.609375 " clip-rule="nonzero"/></clipPath><clipPath id="5f066967ef"><path d="M 311.640625 183.632812 C 314.199219 185.589844 312.167969 188.148438 311.339844 188.375 C 310.8125 188.527344 310.058594 188.226562 309.910156 187.847656 C 309.609375 187.171875 311.640625 183.632812 311.640625 183.632812 " clip-rule="nonzero"/></clipPath><mask id="765f85a71e"><g filter="url(#29a068e627)"><rect x="-53.475" width="641.7" fill="#000000" y="-38.925" height="467.099996" fill-opacity="0.5"/></g></mask><clipPath id="8bd921335b"><path d="M 0.578125 0.609375 L 4 0.609375 L 4 5.527344 L 0.578125 5.527344 Z M 0.578125 0.609375 " clip-rule="nonzero"/></clipPath><clipPath id="c6f4c3921c"><path d="M 2.640625 0.632812 C 5.199219 2.589844 3.167969 5.148438 2.339844 5.375 C 1.8125 5.527344 1.058594 5.226562 0.910156 4.847656 C 0.609375 4.171875 2.640625 0.632812 2.640625 0.632812 " clip-rule="nonzero"/></clipPath><clipPath id="24edf3d650"><rect x="0" width="4" y="0" height="6"/></clipPath></defs><path fill="#ffde59" d="M 280.390625 149.746094 C 280.390625 149.746094 304.546875 147.46875 346.894531 142.921875 C 389.242188 138.371094 390.378906 147.472656 390.378906 147.472656 C 378.582031 146.761719 280.390625 149.746094 280.390625 149.746094 Z M 84.722656 134.203125 C 84.722656 134.203125 113.289062 134.523438 146.207031 135.625 C 146.207031 135.625 168.5625 135.601562 173.109375 142.140625 L 204.582031 140.929688 C 204.582031 140.929688 195.132812 129.699219 138.007812 128.136719 L 131.117188 131.621094 C 131.117188 131.621094 118.683594 130.910156 99.925781 130.695312 L 95.640625 126.65625 C 95.210938 126.246094 94.609375 126.074219 94.027344 126.195312 L 87.496094 127.546875 C 87.011719 127.648438 86.621094 128.003906 86.476562 128.476562 Z M 197.976562 84.210938 C 197.976562 84.210938 309.667969 1.90625 396.207031 49.242188 C 396.207031 49.242188 451.625 75.730469 426.898438 161.117188 L 453.707031 161.117188 C 453.707031 161.117188 488.28125 64.167969 409.421875 32.183594 C 330.558594 0.203125 221.421875 59.90625 197.976562 84.210938 Z M 342.492188 277.398438 C 342.492188 277.398438 274.710938 339.234375 202.667969 348.621094 C 130.621094 358 98.648438 340.089844 79.039062 300.003906 C 79.039062 300.003906 97.371094 388.703125 229.523438 357.148438 C 229.523438 357.148438 299.4375 340.941406 372.761719 277.398438 Z M 342.492188 277.398438 " fill-opacity="1" fill-rule="nonzero"/><g clip-path="url(#65e35600fd)"><path fill="#5ce1e6" d="M 406.152344 131.078125 C 406.152344 131.078125 396.675781 126.910156 374.132812 123.6875 C 374.132812 123.6875 369.632812 123.019531 358.691406 117.050781 C 347.75 111.082031 322.21875 94.875 298.347656 93.171875 C 298.347656 93.171875 274.566406 91.109375 235.773438 101.34375 C 235.773438 101.34375 254.53125 92.046875 293.183594 91.183594 C 293.183594 91.183594 246.050781 88.054688 217.445312 88.621094 C 217.445312 88.621094 192.058594 90.136719 174.25 96.203125 C 156.4375 102.269531 108.316406 118.566406 90.882812 122.167969 C 90.882812 122.167969 116.84375 124.253906 144.3125 122.167969 C 144.3125 122.167969 131.046875 121.03125 126.878906 115.347656 L 177.089844 98.289062 C 177.089844 98.289062 182.347656 96.34375 188.457031 96.773438 C 188.457031 96.773438 217.445312 95.871094 233.074219 100.988281 C 233.074219 100.988281 204.796875 115.488281 152.363281 124.160156 C 152.363281 124.160156 162.878906 128.042969 214.410156 126.953125 C 261.390625 125.964844 356.511719 128.609375 373.941406 130.128906 C 373.941406 130.128906 394.785156 132.027344 402.929688 137.523438 C 402.929688 137.523438 389.859375 145.101562 390.425781 161.59375 C 390.425781 161.59375 398.765625 142.449219 409.371094 142.828125 C 419.980469 143.207031 424.339844 161.59375 424.339844 161.59375 C 424.339844 161.59375 430.023438 140.742188 406.152344 131.078125 Z M 265.566406 120.746094 C 258.554688 120.746094 253.820312 119.324219 252.019531 118.375 C 250.21875 117.429688 247.757812 115.152344 245.578125 112.59375 C 243.398438 110.035156 245.105469 108.898438 245.105469 108.898438 C 266.042969 96.859375 288.207031 96.671875 288.207031 96.671875 C 298.15625 107.664062 303.511719 122.351562 303.511719 122.351562 C 303.511719 122.351562 272.578125 120.746094 265.566406 120.746094 Z M 312.460938 122.359375 C 306.398438 107.386719 294.273438 96.679688 294.273438 96.679688 C 327.34375 97.488281 362.863281 124.445312 362.863281 124.445312 Z M 83.207031 136.667969 C 83.207031 136.667969 81.40625 140.835938 77.140625 145.574219 C 77.140625 145.574219 77.140625 156.382812 80.171875 161.117188 C 80.171875 161.117188 82.992188 155.835938 83.085938 149.773438 L 100.492188 150.597656 C 100.492188 150.597656 91.539062 151.453125 92.960938 160.265625 C 92.960938 160.265625 92.535156 153.15625 102.765625 153.726562 C 112.996094 154.296875 126.496094 152.730469 130.902344 160.550781 C 130.902344 160.550781 131.917969 152.9375 112.566406 151.59375 C 112.566406 151.59375 168.839844 152.160156 181.488281 150.742188 C 181.488281 150.742188 109.867188 148.894531 83.863281 144.484375 C 83.871094 144.484375 84.203125 141.644531 83.207031 136.667969 Z M 236.199219 161.117188 C 236.199219 161.117188 241.597656 153.867188 252.117188 154.4375 C 262.628906 155.003906 264.761719 159.128906 266.753906 161.117188 L 273.148438 161.117188 C 273.148438 161.117188 267.320312 148.324219 252.257812 148.183594 C 237.195312 148.039062 231.511719 157.5625 230.089844 161.117188 Z M 411.125 85.492188 C 411.125 85.492188 393.84375 38.941406 318.050781 46.542969 C 318.050781 46.542969 264.050781 51.375 218.007812 80.941406 L 243.445312 80.941406 C 243.449219 80.945312 356.128906 16.40625 411.125 85.492188 Z M 87.5625 277.398438 C 87.5625 277.398438 93.535156 329.714844 154.351562 339.09375 C 215.167969 348.476562 274 315.210938 296.167969 301.28125 C 296.167969 301.28125 220.285156 346.769531 155.773438 327.15625 C 155.773438 327.15625 114.5625 314.078125 109.730469 277.398438 Z M 87.5625 277.398438 " fill-opacity="1" fill-rule="nonzero"/></g><g fill="#000000" fill-opacity="1"><g transform="translate(36.126172, 253.336224)"><g><path d="M 27.195312 -6.800781 L 19.59375 -26.539062 L 28.878906 -46.863281 C 30.046875 -49.566406 32.019531 -50.734375 32.019531 -50.734375 C 26.976562 -51.613281 24.492188 -49.128906 22.808594 -45.546875 L 17.105469 -32.898438 L 11.332031 -47.957031 C 10.671875 -49.492188 9.285156 -51.539062 7.382812 -51.246094 C 4.679688 -50.808594 2.339844 -46.351562 2.339844 -46.351562 C 2.339844 -46.351562 5.628906 -47.664062 7.675781 -42.402344 L 14.035156 -26.027344 L 4.898438 -5.628906 C 3.800781 -3.289062 2.632812 -0.878906 0.730469 0.21875 C 0.730469 0.21875 6.871094 1.460938 10.015625 -5.554688 L 16.523438 -19.738281 L 23.101562 -2.703125 C 23.980469 -0.804688 26.320312 0.511719 28.074219 0.21875 C 30.777344 -0.292969 31.289062 -2.414062 31.507812 -4.824219 C 31.507812 -4.824219 28.65625 -3.214844 27.195312 -6.800781 Z M 27.195312 -6.800781 "/></g></g></g><g fill="#000000" fill-opacity="1"><g transform="translate(68.877792, 253.336224)"><g><path d="M 9.722656 -5.042969 C 8.992188 -5.042969 8.261719 -4.972656 7.601562 -4.824219 C 8.042969 -5.921875 8.335938 -7.238281 8.335938 -8.773438 L 8.335938 -24.929688 L 14.765625 -24.929688 C 17.546875 -24.929688 19.8125 -25.734375 23.394531 -31.070312 C 23.394531 -31.070312 22.515625 -30.121094 21.566406 -30.121094 L 11.84375 -30.121094 C 10.453125 -30.121094 9.429688 -29.972656 8.335938 -29.242188 L 8.335938 -45.839844 L 20.761719 -45.839844 C 23.539062 -45.839844 25.367188 -46.570312 28.878906 -51.832031 C 28.878906 -51.832031 28 -51.027344 27.195312 -51.027344 L 11.550781 -51.027344 C 8.773438 -51.027344 7.019531 -50.296875 3.4375 -44.886719 C 3.4375 -44.886719 3.949219 -45.398438 4.53125 -45.617188 C 3.289062 -44.082031 3.070312 -42.621094 3.070312 -41.085938 L 3.070312 -4.898438 C 3.070312 -2.121094 2.558594 0.21875 0.730469 1.828125 C 1.609375 1.242188 2.558594 0.65625 3.582031 0 L 20.25 0 C 23.539062 0 24.855469 -0.585938 28.4375 -5.847656 C 28.4375 -5.847656 27.5625 -5.042969 26.757812 -5.042969 Z M 9.722656 -5.042969 "/></g></g></g><g fill="#000000" fill-opacity="1"><g transform="translate(98.485838, 253.336224)"><g/></g></g><g fill="#000000" fill-opacity="1"><g transform="translate(113.107094, 253.336224)"><g><path d="M 26.171875 -4.898438 L 9.648438 -4.898438 C 8.992188 -4.898438 8.335938 -4.824219 7.75 -4.679688 C 8.042969 -5.554688 8.1875 -6.507812 8.1875 -7.675781 L 8.1875 -43.425781 C 8.1875 -46.203125 7.53125 -47.8125 2.191406 -51.175781 C 2.191406 -51.175781 3.070312 -50.222656 3.070312 -49.421875 L 3.070312 -4.53125 C 3.070312 -1.753906 2.484375 0.65625 0.730469 2.191406 C 1.679688 1.535156 2.851562 0.949219 3.949219 0.21875 L 21.492188 0.21875 C 23.90625 0.21875 25.585938 -1.167969 28.511719 -5.777344 C 28.511719 -5.777344 27.269531 -4.898438 26.171875 -4.898438 Z M 26.171875 -4.898438 "/></g></g></g><g fill="#000000" fill-opacity="1"><g transform="translate(142.349618, 253.336224)"><g><path d="M 19.300781 -51.757812 C 19.300781 -51.757812 20.175781 -50.882812 20.175781 -50.003906 L 20.175781 -7.824219 C 20.175781 -6.359375 20.03125 -4.972656 19.59375 -3.800781 C 14.839844 -2.046875 6.800781 -4.3125 6.800781 -15.28125 L 6.800781 -43.71875 C 6.800781 -46.496094 6.066406 -48.617188 0.730469 -51.90625 C 0.730469 -51.90625 1.609375 -50.957031 1.609375 -50.152344 L 1.609375 -13.742188 C 1.609375 -3.4375 8.042969 0.65625 14.621094 0.65625 C 15.71875 0.65625 17.105469 -0.292969 18.351562 -1.390625 C 21.347656 -3.214844 25.367188 -5.628906 25.367188 -11.625 L 25.367188 -43.207031 C 25.367188 -45.984375 24.636719 -48.46875 19.300781 -51.757812 Z M 19.300781 -51.757812 "/></g></g></g><g fill="#000000" fill-opacity="1"><g transform="translate(168.521673, 253.336224)"><g><path d="M 12.429688 -51.980469 C 10.894531 -51.980469 8.480469 -50.445312 6.652344 -49.054688 L 6.871094 -49.273438 C 1.535156 -45.691406 0.804688 -43.5 0.804688 -40.71875 L 0.804688 -13.742188 C 0.804688 -3.4375 6.140625 0.65625 12.71875 0.65625 C 14.109375 0.65625 16.523438 -0.65625 18.421875 -1.972656 L 18.277344 -1.753906 C 19.226562 -2.414062 20.03125 -2.996094 20.6875 -3.507812 L 20.617188 -3.507812 C 20.6875 -3.507812 20.761719 -3.582031 20.761719 -3.582031 C 23.90625 -6.140625 24.34375 -8.113281 24.34375 -10.382812 L 24.34375 -37.578125 C 24.34375 -47.886719 19.082031 -51.980469 12.429688 -51.980469 Z M 5.996094 -15.351562 L 5.996094 -47.519531 C 5.996094 -47.8125 6.066406 -48.03125 6.214844 -48.324219 C 10.894531 -50.078125 19.152344 -47.152344 19.152344 -35.96875 L 19.152344 -3.507812 C 19.152344 -3.289062 19.082031 -3.070312 19.007812 -2.851562 C 14.035156 -1.609375 5.996094 -4.679688 5.996094 -15.351562 Z M 4.238281 -47.082031 L 4.75 -47.519531 C 4.460938 -47.226562 4.238281 -47.082031 4.238281 -47.082031 Z M 21.640625 -4.238281 C 21.640625 -4.238281 21.347656 -3.949219 20.761719 -3.582031 L 20.6875 -3.507812 C 21.054688 -3.726562 21.347656 -3.949219 21.640625 -4.238281 Z M 21.640625 -4.238281 "/></g></g></g><g fill="#000000" fill-opacity="1"><g transform="translate(193.670241, 253.336224)"><g><path d="M 27.855469 -51.175781 L 8.554688 -51.175781 C 5.847656 -51.175781 3.949219 -49.710938 0.730469 -45.398438 C 0.730469 -45.398438 1.753906 -46.203125 2.484375 -46.203125 L 13.453125 -46.203125 C 12.0625 -44.523438 11.769531 -43.132812 11.769531 -41.453125 L 11.769531 -5.265625 C 11.769531 -2.484375 11.039062 -0.0742188 9.578125 1.460938 C 12.207031 -0.367188 16.742188 -2.777344 16.742188 -8.917969 L 16.742188 -46.203125 L 21.859375 -46.203125 C 24.492188 -46.203125 26.757812 -47.664062 29.679688 -52.199219 C 29.679688 -52.199219 28.878906 -51.175781 27.855469 -51.175781 Z M 27.855469 -51.175781 "/></g></g></g><g fill="#000000" fill-opacity="1"><g transform="translate(221.158211, 253.336224)"><g/></g></g><g fill="#000000" fill-opacity="1"><g transform="translate(235.779479, 253.336224)"><g><path d="M 38.527344 -0.144531 L 38.527344 -47.8125 C 38.527344 -52.78125 36.042969 -52.199219 33.703125 -50.152344 C 29.679688 -48.910156 27.195312 -45.179688 26.683594 -40.867188 L 21.492188 -12.867188 C 21.421875 -12.0625 21.273438 -11.332031 21.054688 -10.601562 C 21.273438 -12.207031 21.273438 -13.671875 20.980469 -14.914062 L 11.917969 -47.300781 C 11.550781 -48.910156 10.308594 -51.539062 8.480469 -51.539062 C 8.113281 -51.539062 7.75 -51.46875 7.382812 -51.320312 L 7.75 -51.757812 C 2.339844 -48.25 1.679688 -45.546875 1.679688 -42.765625 L 1.679688 0 C 1.679688 0.804688 0.730469 1.753906 0.730469 1.753906 C 6.214844 -1.828125 6.871094 -4.09375 6.871094 -6.945312 L 6.871094 -44.375 C 7.238281 -43.789062 7.53125 -43.058594 7.75 -42.109375 L 17.328125 -7.382812 C 17.691406 -5.847656 16.742188 -3.65625 16.449219 -2.925781 L 16.375 -2.925781 C 16.375 -2.925781 16.375 -2.925781 16.449219 -2.925781 L 16.304688 -2.703125 C 16.742188 -2.925781 17.179688 -3.144531 17.546875 -3.507812 C 19.957031 -4.75 25.222656 -7.894531 25.953125 -12.355469 L 31.289062 -40.867188 C 31.582031 -43.058594 32.09375 -45.035156 32.605469 -46.570312 C 33.117188 -45.984375 33.261719 -44.960938 33.261719 -43.277344 L 33.261719 -6.652344 C 33.261719 -3.875 33.921875 -2.046875 39.332031 1.609375 C 39.332031 1.609375 38.527344 0.65625 38.527344 -0.144531 Z M 38.527344 -0.144531 "/></g></g></g><g fill="#000000" fill-opacity="1"><g transform="translate(275.841733, 253.336224)"><g><path d="M 8.113281 -8.992188 L 8.113281 -49.710938 C 8.113281 -50.515625 8.992188 -51.394531 8.992188 -51.394531 C 3.65625 -48.25 2.996094 -46.058594 2.996094 -43.351562 L 2.996094 -5.117188 C 2.996094 -2.414062 2.414062 -0.0742188 0.730469 1.460938 C 3.65625 0.0742188 8.113281 -2.703125 8.113281 -8.992188 Z M 8.113281 -8.992188 "/></g></g></g><g fill="#000000" fill-opacity="1"><g transform="translate(285.564884, 253.336224)"><g><path d="M 10.746094 -57.316406 L 16.011719 -62.578125 L 20.835938 -57.753906 C 22.882812 -55.707031 24.417969 -57.097656 27.269531 -60.019531 C 26.171875 -59.949219 25.660156 -60.238281 24.929688 -60.972656 L 18.058594 -67.917969 C 17.179688 -68.792969 16.15625 -69.011719 14.621094 -68.0625 C 14.476562 -68.0625 14.253906 -68.0625 14.035156 -67.84375 L 12.941406 -66.820312 C 12.574219 -66.453125 12.207031 -66.089844 11.769531 -65.648438 L 11.84375 -65.648438 L 7.53125 -61.410156 C 5.554688 -59.363281 6.945312 -57.828125 9.796875 -54.976562 C 9.722656 -56.074219 10.015625 -56.585938 10.746094 -57.316406 Z M 9.722656 -5.042969 C 8.992188 -5.042969 8.261719 -4.972656 7.601562 -4.824219 C 8.042969 -5.921875 8.335938 -7.238281 8.335938 -8.773438 L 8.335938 -24.929688 L 14.765625 -24.929688 C 17.546875 -24.929688 19.8125 -25.734375 23.394531 -31.070312 C 23.394531 -31.070312 22.515625 -30.121094 21.566406 -30.121094 L 11.84375 -30.121094 C 10.453125 -30.121094 9.429688 -29.972656 8.335938 -29.242188 L 8.335938 -45.839844 L 20.761719 -45.839844 C 23.539062 -45.839844 25.367188 -46.570312 28.878906 -51.832031 C 28.878906 -51.832031 28 -51.027344 27.195312 -51.027344 L 11.550781 -51.027344 C 8.773438 -51.027344 7.019531 -50.296875 3.4375 -44.886719 C 3.4375 -44.886719 3.949219 -45.398438 4.53125 -45.617188 C 3.289062 -44.082031 3.070312 -42.621094 3.070312 -41.085938 L 3.070312 -4.898438 C 3.070312 -2.121094 2.558594 0.21875 0.730469 1.828125 C 1.609375 1.242188 2.558594 0.65625 3.582031 0 L 20.25 0 C 23.539062 0 24.855469 -0.585938 28.4375 -5.847656 C 28.4375 -5.847656 27.5625 -5.042969 26.757812 -5.042969 Z M 9.722656 -5.042969 "/></g></g></g><g fill="#000000" fill-opacity="1"><g transform="translate(315.172942, 253.336224)"><g><path d="M 21.566406 -43.789062 L 21.566406 -18.933594 L 12.0625 -47.226562 C 11.476562 -48.761719 10.089844 -51.320312 8.1875 -51.320312 C 7.894531 -51.320312 7.675781 -51.246094 7.382812 -51.175781 L 7.675781 -51.46875 C 7.382812 -51.246094 7.089844 -51.027344 6.800781 -50.882812 C 6.578125 -50.734375 6.359375 -50.589844 6.214844 -50.445312 C 2.121094 -47.445312 1.609375 -45.398438 1.609375 -42.914062 L 1.609375 0 C 1.609375 0.804688 0.730469 1.753906 0.730469 1.753906 C 6.140625 -1.535156 6.800781 -3.726562 6.800781 -7.164062 L 6.800781 -44.667969 C 7.382812 -44.082031 7.894531 -43.132812 8.335938 -41.890625 L 21.347656 -3.726562 C 22.003906 -1.753906 20.761719 0.949219 20.761719 0.949219 L 21.492188 0.511719 C 21.273438 1.167969 20.761719 1.753906 20.761719 1.753906 C 26.246094 -1.535156 26.832031 -3.726562 26.832031 -7.164062 L 26.832031 -50.664062 C 26.832031 -51.46875 27.707031 -52.417969 27.707031 -52.417969 C 22.296875 -48.835938 21.566406 -46.640625 21.566406 -43.789062 Z M 21.566406 -43.789062 "/></g></g></g><g fill="#000000" fill-opacity="1"><g transform="translate(343.611282, 253.336224)"><g/></g></g><g fill="#000000" fill-opacity="1"><g transform="translate(358.23255, 253.336224)"><g><path d="M 27.855469 -51.175781 L 8.554688 -51.175781 C 5.847656 -51.175781 3.949219 -49.710938 0.730469 -45.398438 C 0.730469 -45.398438 1.753906 -46.203125 2.484375 -46.203125 L 13.453125 -46.203125 C 12.0625 -44.523438 11.769531 -43.132812 11.769531 -41.453125 L 11.769531 -5.265625 C 11.769531 -2.484375 11.039062 -0.0742188 9.578125 1.460938 C 12.207031 -0.367188 16.742188 -2.777344 16.742188 -8.917969 L 16.742188 -46.203125 L 21.859375 -46.203125 C 24.492188 -46.203125 26.757812 -47.664062 29.679688 -52.199219 C 29.679688 -52.199219 28.878906 -51.175781 27.855469 -51.175781 Z M 27.855469 -51.175781 "/></g></g></g><g fill="#000000" fill-opacity="1"><g transform="translate(385.720531, 253.336224)"><g><path d="M 28.367188 -3.875 C 25.585938 -3.875 22.515625 -14.914062 19.375 -20.617188 C 23.246094 -22.152344 25.660156 -25.515625 25.660156 -31.949219 L 25.660156 -36.40625 C 25.660156 -45.546875 24.125 -51.027344 16.742188 -51.027344 L 9.503906 -51.175781 C 8.335938 -51.175781 6.945312 -49.933594 5.777344 -48.542969 C 4.460938 -47.445312 3.726562 -46.421875 3.363281 -45.398438 C 3.070312 -45.035156 2.925781 -44.742188 2.925781 -44.742188 C 2.996094 -44.816406 3.070312 -44.886719 3.214844 -44.960938 C 3.070312 -44.300781 2.996094 -43.644531 2.996094 -42.914062 L 2.996094 -4.972656 C 2.996094 -2.191406 2.414062 0.21875 0.730469 1.753906 C 3.65625 -0.144531 8.261719 -2.484375 8.261719 -8.773438 L 8.261719 -19.445312 L 13.671875 -19.445312 C 16.886719 -15.132812 21.347656 0.367188 24.855469 0.367188 C 29.023438 0.367188 30.191406 -4.460938 30.191406 -4.460938 C 30.191406 -4.460938 29.390625 -3.875 28.367188 -3.875 Z M 8.261719 -24.269531 L 8.261719 -45.691406 L 12.574219 -45.691406 C 19.59375 -45.691406 20.46875 -42.695312 20.46875 -34.066406 L 20.46875 -31.4375 C 20.46875 -26.539062 17.839844 -24.636719 14.546875 -24.636719 L 10.527344 -24.636719 C 9.648438 -24.636719 8.917969 -24.5625 8.261719 -24.269531 Z M 8.261719 -24.269531 "/></g></g></g><g fill="#000000" fill-opacity="1"><g transform="translate(416.644493, 253.336224)"><g><path d="M 19.300781 -51.757812 C 19.300781 -51.757812 20.175781 -50.882812 20.175781 -50.003906 L 20.175781 -7.824219 C 20.175781 -6.359375 20.03125 -4.972656 19.59375 -3.800781 C 14.839844 -2.046875 6.800781 -4.3125 6.800781 -15.28125 L 6.800781 -43.71875 C 6.800781 -46.496094 6.066406 -48.617188 0.730469 -51.90625 C 0.730469 -51.90625 1.609375 -50.957031 1.609375 -50.152344 L 1.609375 -13.742188 C 1.609375 -3.4375 8.042969 0.65625 14.621094 0.65625 C 15.71875 0.65625 17.105469 -0.292969 18.351562 -1.390625 C 21.347656 -3.214844 25.367188 -5.628906 25.367188 -11.625 L 25.367188 -43.207031 C 25.367188 -45.984375 24.636719 -48.46875 19.300781 -51.757812 Z M 19.300781 -51.757812 "/></g></g></g><g fill="#000000" fill-opacity="1"><g transform="translate(442.81657, 253.336224)"><g><path d="M 21.566406 -43.789062 L 21.566406 -18.933594 L 12.0625 -47.226562 C 11.476562 -48.761719 10.089844 -51.320312 8.1875 -51.320312 C 7.894531 -51.320312 7.675781 -51.246094 7.382812 -51.175781 L 7.675781 -51.46875 C 7.382812 -51.246094 7.089844 -51.027344 6.800781 -50.882812 C 6.578125 -50.734375 6.359375 -50.589844 6.214844 -50.445312 C 2.121094 -47.445312 1.609375 -45.398438 1.609375 -42.914062 L 1.609375 0 C 1.609375 0.804688 0.730469 1.753906 0.730469 1.753906 C 6.140625 -1.535156 6.800781 -3.726562 6.800781 -7.164062 L 6.800781 -44.667969 C 7.382812 -44.082031 7.894531 -43.132812 8.335938 -41.890625 L 21.347656 -3.726562 C 22.003906 -1.753906 20.761719 0.949219 20.761719 0.949219 L 21.492188 0.511719 C 21.273438 1.167969 20.761719 1.753906 20.761719 1.753906 C 26.246094 -1.535156 26.832031 -3.726562 26.832031 -7.164062 L 26.832031 -50.664062 C 26.832031 -51.46875 27.707031 -52.417969 27.707031 -52.417969 C 22.296875 -48.835938 21.566406 -46.640625 21.566406 -43.789062 Z M 21.566406 -43.789062 "/></g></g></g><g fill="#000000" fill-opacity="1"><g transform="translate(471.25491, 253.336224)"><g><path d="M 26.390625 -26.976562 C 26.390625 -26.976562 25.515625 -26.097656 24.636719 -26.097656 L 18.496094 -26.097656 C 15.71875 -26.097656 15.058594 -25.441406 11.476562 -20.03125 C 11.476562 -20.03125 12.429688 -20.910156 13.230469 -20.910156 L 19.375 -20.910156 C 19.738281 -20.910156 20.03125 -20.910156 20.324219 -20.980469 C 20.03125 -20.175781 19.957031 -19.445312 19.957031 -18.496094 L 19.957031 -7.894531 C 19.957031 -6.289062 19.738281 -4.75 19.226562 -3.507812 C 14.402344 -1.753906 5.996094 -4.238281 5.996094 -15.9375 L 5.996094 -45.910156 L 19.082031 -45.910156 C 21.859375 -45.910156 22.589844 -46.570312 26.171875 -51.980469 C 26.171875 -51.980469 25.074219 -51.101562 24.125 -51.101562 L 9.796875 -51.101562 C 7.894531 -51.101562 6.945312 -50.808594 5.484375 -48.980469 C 1.316406 -46.058594 0.804688 -44.667969 0.804688 -42.183594 L 0.804688 -13.816406 C 0.804688 -3.4375 7.601562 0.65625 14.328125 0.65625 C 15.5 0.65625 16.886719 -0.292969 18.203125 -1.460938 C 21.199219 -3.214844 25.148438 -5.191406 25.148438 -11.183594 L 25.148438 -24.492188 C 25.148438 -25.296875 26.027344 -26.246094 26.027344 -26.246094 L 25.808594 -26.097656 C 25.953125 -26.390625 26.171875 -26.683594 26.390625 -26.976562 Z M 26.390625 -26.976562 "/></g></g></g><g clip-path="url(#7207693263)"><g clip-path="url(#a5b2d9bf8a)"><g mask="url(#03133ee09d)"><g transform="matrix(1, 0, 0, 1, 158, 191)"><g clip-path="url(#f1a1ecc527)"><g clip-path="url(#d52aa9d0c8)"><g clip-path="url(#4ceff9355f)"><rect x="-275.645" width="770.04" fill="#000000" height="560.519996" y="-276.634999" fill-opacity="1"/></g></g></g></g></g></g></g><g clip-path="url(#62fc1d58b5)"><g clip-path="url(#6dc94dfb37)"><g mask="url(#95dbe0a2d0)"><g transform="matrix(1, 0, 0, 1, 158, 192)"><g clip-path="url(#ded503db4c)"><g clip-path="url(#c264c5260f)"><g clip-path="url(#24bb361d62)"><rect x="-275.645" width="770.04" fill="#000000" height="560.519996" y="-277.634999" fill-opacity="1"/></g></g></g></g></g></g></g><g clip-path="url(#5c421c0438)"><g clip-path="url(#9fd691b7c8)"><g mask="url(#d3b362a05e)"><g transform="matrix(1, 0, 0, 1, 158, 192)"><g clip-path="url(#1dab28289e)"><g clip-path="url(#f569416921)"><g clip-path="url(#137a07ab00)"><rect x="-275.645" width="770.04" fill="#000000" height="560.519996" y="-277.634999" fill-opacity="1"/></g></g></g></g></g></g></g><g clip-path="url(#aa0cab9911)"><g clip-path="url(#413336b97d)"><g mask="url(#89422940f7)"><g transform="matrix(1, 0, 0, 1, 158, 192)"><g clip-path="url(#dce9be78e5)"><g clip-path="url(#71b99c6605)"><g clip-path="url(#68d7f2e5c1)"><rect x="-275.645" width="770.04" fill="#000000" height="560.519996" y="-277.634999" fill-opacity="1"/></g></g></g></g></g></g></g><g clip-path="url(#9c7bc65914)"><g clip-path="url(#02fa378a7b)"><g mask="url(#d7c0f42145)"><g transform="matrix(1, 0, 0, 1, 159, 192)"><g clip-path="url(#b2174802dc)"><g clip-path="url(#6492fb597c)"><g clip-path="url(#4daa580859)"><rect x="-276.645" width="770.04" fill="#000000" height="560.519996" y="-277.634999" fill-opacity="1"/></g></g></g></g></g></g></g><g clip-path="url(#0ada376ccb)"><g clip-path="url(#a2d345ad6f)"><g mask="url(#95dcc36af1)"><g transform="matrix(1, 0, 0, 1, 158, 192)"><g clip-path="url(#41c7c734c7)"><g clip-path="url(#7ac7a7e2d6)"><g clip-path="url(#1f5e81ab20)"><rect x="-275.645" width="770.04" fill="#000000" height="560.519996" y="-277.634999" fill-opacity="1"/></g></g></g></g></g></g></g><g clip-path="url(#da259723c5)"><g clip-path="url(#981bb0a27c)"><g mask="url(#29a2c11073)"><g transform="matrix(1, 0, 0, 1, 181, 192)"><g clip-path="url(#01c7762852)"><g clip-path="url(#0e7ea594b6)"><g clip-path="url(#dbe2f0d271)"><rect x="-298.645" width="770.04" fill="#000000" height="560.519996" y="-277.634999" fill-opacity="1"/></g></g></g></g></g></g></g><g clip-path="url(#9bb53bdcd1)"><g clip-path="url(#de8c918c6e)"><g mask="url(#3915d6f271)"><g transform="matrix(1, 0, 0, 1, 182, 193)"><g clip-path="url(#f87361e343)"><g clip-path="url(#d4b11d223e)"><g clip-path="url(#ab726802ad)"><rect x="-299.645" width="770.04" fill="#000000" height="560.519996" y="-278.634999" fill-opacity="1"/></g></g></g></g></g></g></g><g clip-path="url(#9997201f2c)"><g clip-path="url(#3773c64869)"><g mask="url(#fe7de53c9d)"><g transform="matrix(1, 0, 0, 1, 181, 193)"><g clip-path="url(#4a5a557077)"><g clip-path="url(#bbc858bd3b)"><g clip-path="url(#447ae9b4a2)"><rect x="-298.645" width="770.04" fill="#000000" height="560.519996" y="-278.634999" fill-opacity="1"/></g></g></g></g></g></g></g><g clip-path="url(#3e0cf158a5)"><g clip-path="url(#23882480a3)"><g mask="url(#6d4fc5aae6)"><g transform="matrix(1, 0, 0, 1, 181, 193)"><g clip-path="url(#eae786db92)"><g clip-path="url(#4601a23efc)"><g clip-path="url(#54df3217de)"><rect x="-298.645" width="770.04" fill="#000000" height="560.519996" y="-278.634999" fill-opacity="1"/></g></g></g></g></g></g></g><g clip-path="url(#a9edfc6804)"><g clip-path="url(#3bc9ef9bbc)"><g mask="url(#65afcc8cea)"><g transform="matrix(1, 0, 0, 1, 173, 183)"><g clip-path="url(#9c4f0d84b1)"><g clip-path="url(#85f57f9a6c)"><g clip-path="url(#9819ef84e6)"><rect x="-290.645" width="770.04" fill="#000000" height="560.519996" y="-268.634999" fill-opacity="1"/></g></g></g></g></g></g></g><g clip-path="url(#1a7dffa5b6)"><g clip-path="url(#e44dbe5f5c)"><g mask="url(#fb0a6d851f)"><g transform="matrix(1, 0, 0, 1, 174, 185)"><g clip-path="url(#2380ac44dc)"><g clip-path="url(#a0ddfb39a3)"><g clip-path="url(#86865966a4)"><rect x="-291.645" width="770.04" fill="#000000" height="560.519996" y="-270.634999" fill-opacity="1"/></g></g></g></g></g></g></g><g clip-path="url(#53d1c91197)"><g clip-path="url(#cb26d3ecfd)"><g mask="url(#de5693c01f)"><g transform="matrix(1, 0, 0, 1, 172, 184)"><g clip-path="url(#676273f33e)"><g clip-path="url(#8d406af804)"><g clip-path="url(#fd59c5799b)"><rect x="-289.645" width="770.04" fill="#000000" height="560.519996" y="-269.634999" fill-opacity="1"/></g></g></g></g></g></g></g><g clip-path="url(#a6d53c8326)"><g clip-path="url(#ea6fa9fa66)"><g mask="url(#6204e7b839)"><g transform="matrix(1, 0, 0, 1, 173, 182)"><g clip-path="url(#64f6ce9af4)"><g clip-path="url(#81d053087e)"><g clip-path="url(#90b5fcf986)"><rect x="-290.645" width="770.04" fill="#000000" height="560.519996" y="-267.634999" fill-opacity="1"/></g></g></g></g></g></g></g><g clip-path="url(#b4a8231de2)"><g clip-path="url(#b664cb2887)"><g mask="url(#d8f68bd346)"><g transform="matrix(1, 0, 0, 1, 304, 180)"><g clip-path="url(#0b55e7a3b6)"><g clip-path="url(#3ac8e0fb95)"><g clip-path="url(#c1541ef393)"><rect x="-421.645" width="770.04" fill="#000000" height="560.519996" y="-265.634999" fill-opacity="1"/></g></g></g></g></g></g></g><g clip-path="url(#77a4c17e03)"><g clip-path="url(#bb12dad359)"><g mask="url(#6d5d4b555d)"><g transform="matrix(1, 0, 0, 1, 303, 180)"><g clip-path="url(#33928584df)"><g clip-path="url(#1ccfc5b698)"><g clip-path="url(#8bd971d2e0)"><rect x="-420.645" width="770.04" fill="#000000" height="560.519996" y="-265.634999" fill-opacity="1"/></g></g></g></g></g></g></g><g clip-path="url(#fe2b0b9cf9)"><g clip-path="url(#45530d9d81)"><g mask="url(#2809e812af)"><g transform="matrix(1, 0, 0, 1, 303, 180)"><g clip-path="url(#59959c9520)"><g clip-path="url(#89b9dfde63)"><g clip-path="url(#980bab17e9)"><rect x="-420.645" width="770.04" fill="#000000" height="560.519996" y="-265.634999" fill-opacity="1"/></g></g></g></g></g></g></g><g clip-path="url(#e3a385cbf5)"><g clip-path="url(#13ead5fd04)"><g mask="url(#d0f6884704)"><g transform="matrix(1, 0, 0, 1, 303, 180)"><g clip-path="url(#e85ed6aaef)"><g clip-path="url(#9367970cac)"><g clip-path="url(#7b29cf9cd1)"><rect x="-420.645" width="770.04" fill="#000000" height="560.519996" y="-265.634999" fill-opacity="1"/></g></g></g></g></g></g></g><g clip-path="url(#4cc6d30d65)"><g clip-path="url(#01b2b4efa0)"><g mask="url(#bdf235fa7e)"><g transform="matrix(1, 0, 0, 1, 303, 181)"><g clip-path="url(#5e446403d4)"><g clip-path="url(#5f234b116c)"><g clip-path="url(#44386cbc26)"><rect x="-420.645" width="770.04" fill="#000000" height="560.519996" y="-266.634999" fill-opacity="1"/></g></g></g></g></g></g></g><g clip-path="url(#97b8eb4a9d)"><g clip-path="url(#a59ce23c53)"><g mask="url(#727495571f)"><g transform="matrix(1, 0, 0, 1, 304, 181)"><g clip-path="url(#2460f40ca0)"><g clip-path="url(#a66df547fb)"><g clip-path="url(#b191be7f5f)"><rect x="-421.645" width="770.04" fill="#000000" height="560.519996" y="-266.634999" fill-opacity="1"/></g></g></g></g></g></g></g><g clip-path="url(#eb8acc1431)"><g clip-path="url(#bd5683b614)"><g mask="url(#46b0036209)"><g transform="matrix(1, 0, 0, 1, 311, 184)"><g clip-path="url(#0c64386da0)"><g clip-path="url(#35287e7994)"><g clip-path="url(#cb601a8d08)"><rect x="-428.645" width="770.04" fill="#000000" height="560.519996" y="-269.634999" fill-opacity="1"/></g></g></g></g></g></g></g><g clip-path="url(#fb7ccb79f1)"><g clip-path="url(#5c35a7cd57)"><g mask="url(#2c6614f941)"><g transform="matrix(1, 0, 0, 1, 309, 184)"><g clip-path="url(#914eca0f3b)"><g clip-path="url(#e635b72637)"><g clip-path="url(#b46fd0cae4)"><rect x="-426.645" width="770.04" fill="#000000" height="560.519996" y="-269.634999" fill-opacity="1"/></g></g></g></g></g></g></g><g clip-path="url(#58aa2e9d70)"><g clip-path="url(#5f066967ef)"><g mask="url(#765f85a71e)"><g transform="matrix(1, 0, 0, 1, 309, 183)"><g clip-path="url(#24edf3d650)"><g clip-path="url(#8bd921335b)"><g clip-path="url(#c6f4c3921c)"><rect x="-426.645" width="770.04" fill="#000000" height="560.519996" y="-268.634999" fill-opacity="1"/></g></g></g></g></g></g></g></svg>